<svg width="160" height="160" viewBox="0 0 16 16" xmlns="http://www.w3.org/2000/svg">
  <rect width="16" height="16" fill="none"/>
  
  <!-- Coin outline -->
  <rect x="4" y="1" width="8" height="1" fill="#D4AF37"/>
  <rect x="3" y="2" width="2" height="1" fill="#D4AF37"/>
  <rect x="11" y="2" width="2" height="1" fill="#D4AF37"/>
  <rect x="2" y="3" width="2" height="1" fill="#D4AF37"/>
  <rect x="12" y="3" width="2" height="1" fill="#D4AF37"/>
  <rect x="1" y="4" width="2" height="8" fill="#D4AF37"/>
  <rect x="13" y="4" width="2" height="8" fill="#D4AF37"/>
  <rect x="2" y="12" width="2" height="1" fill="#D4AF37"/>
  <rect x="12" y="12" width="2" height="1" fill="#D4AF37"/>
  <rect x="3" y="13" width="2" height="1" fill="#D4AF37"/>
  <rect x="11" y="13" width="2" height="1" fill="#D4AF37"/>
  <rect x="4" y="14" width="8" height="1" fill="#D4AF37"/>

  <!-- Coin body -->
  <rect x="4" y="2" width="8" height="1" fill="#FFD700"/>
  <rect x="3" y="3" width="10" height="1" fill="#FFD700"/>
  <rect x="3" y="4" width="10" height="8" fill="#FFD700"/>
  <rect x="3" y="12" width="10" height="1" fill="#FFD700"/>
  <rect x="4" y="13" width="8" height="1" fill="#FFD700"/>

  <!-- Coin shine -->
  <rect x="4" y="3" width="1" height="2" fill="#FFF68F"/>
  <rect x="5" y="4" width="1" height="2" fill="#FFF68F"/>

  <!-- Coin symbol ($ sign) -->
  <rect x="7" y="5" width="2" height="1" fill="#D4AF37"/>
  <rect x="7" y="6" width="1" height="3" fill="#D4AF37"/>
  <rect x="7" y="9" width="2" height="1" fill="#D4AF37"/>
  <rect x="8" y="10" width="1" height="1" fill="#D4AF37"/>
  <rect x="7" y="11" width="2" height="1" fill="#D4AF37"/>
</svg>